<svg height='100px' width='100px'  fill="#1652f0" xmlns="http://www.w3.org/2000/svg" xmlns:xlink="http://www.w3.org/1999/xlink" version="1.1" x="0px" y="0px" viewBox="0 0 100 100" enable-background="new 0 0 100 100" xml:space="preserve"><path d="M94.723,55.623C94.887,54.286,95,52.875,95,51.296c0-12.974-8.673-22.308-20.407-22.308  c-11.504,0-17.973,1.734-25.976,10.937c-3.976,4.573-10.648,14.553-16.94,16.773c-4.168,1.47-8.67,0.834-8.694-4.079  c-0.021-4.165,1.898-7.069,5.093-8.159c8.403-2.868,7.648-10.648,7.648-10.648s-1.733,1.148-9.737,1.579  c-4.1,0.221-6.115,6.002-6.115,6.002s-1.588-5.826-5.412-6.084C7.521,34.839,5,33.122,5,33.122s0,8.97,6.469,11.171  c3.259,1.109,3.955,3.358,4.201,5.235c0.529,4.023-2.359,10.885,5.336,16.54c7.369,5.415,18.544,4.931,36.68,4.935  C77.27,71.007,89.1,70.781,93.27,61.248H80.54c-5.355,0-10.525-2.083-14.518-5.625H80.54H94.723z M75.312,50.701  c-1.941,0-3.516-1.574-3.516-3.516c0-1.942,1.574-3.516,3.516-3.516s3.516,1.574,3.516,3.516  C78.828,49.127,77.254,50.701,75.312,50.701z"></path></svg>